<svg width="70" height="4" viewBox="0 0 70 4" fill="none" xmlns="http://www.w3.org/2000/svg">
<path d="M0.25 1.59094C0.111929 1.59094 0 1.70287 0 1.84094C0 1.97901 0.111929 2.09094 0.25 2.09094V1.84094V1.59094ZM69.434 2.01772C69.5317 1.92009 69.5317 1.7618 69.434 1.66417L67.843 0.0731754C67.7454 -0.0244557 67.5871 -0.0244557 67.4895 0.0731754C67.3919 0.170807 67.3919 0.329098 67.4895 0.426729L68.9037 1.84094L67.4895 3.25516C67.3919 3.35279 67.3919 3.51108 67.4895 3.60871C67.5871 3.70634 67.7454 3.70634 67.843 3.60871L69.434 2.01772ZM0.25 1.84094V2.09094H69.2572V1.84094V1.59094H0.25V1.84094Z" fill="#1B1B1B"/>
</svg>
