<svg width="30" height="30" viewBox="0 0 30 30" fill="none" xmlns="http://www.w3.org/2000/svg">
<path d="M20.7128 9.96973L12.2432 18.4395L8.53711 14.7349C8.53354 14.7313 8.52997 14.7277 8.52631 14.7242C8.2305 14.4343 7.75571 14.4391 7.46585 14.7349C7.1759 15.0308 7.18076 15.5056 7.47656 15.7954L11.7129 20.0303C11.8533 20.1712 12.0442 20.2503 12.2432 20.25C12.4421 20.2502 12.6329 20.1712 12.7733 20.0303L21.7733 11.0303C21.7769 11.0267 21.7805 11.0232 21.7841 11.0196C22.0739 10.7238 22.0692 10.249 21.7733 9.95911C21.4775 9.66916 21.0027 9.67401 20.7128 9.96973ZM15 0C6.71576 0 0 6.71576 0 15C0 23.2842 6.71576 30 15 30C23.2802 29.9903 29.9903 23.2802 30 15C30 6.71576 23.2842 0 15 0ZM15 28.5C7.54413 28.5 1.5 22.4559 1.5 15C1.5 7.54413 7.54413 1.5 15 1.5C22.4525 1.50815 28.4919 7.54752 28.5 15C28.5 22.4559 22.4559 28.5 15 28.5Z" fill="#1B1B1B"/>
</svg>
