<svg width="227" height="64" viewBox="0 0 227 64" fill="none" xmlns="http://www.w3.org/2000/svg">
<g clip-path="url(#clip0_531_153)">
<path d="M206.67 56.1263H202.813V3.67499H199.258V48.1305C199.258 51.2689 198.852 53.4853 198.04 54.7796C197.228 56.0755 195.534 56.7218 192.963 56.7218V53.4345C193.978 53.4345 194.638 53.086 194.942 52.389C195.247 51.6919 195.399 50.2724 195.399 48.1305V0.612705H206.67V56.1263Z" fill="#1B1B1B"/>
<path d="M214.894 56.1266V0.613004H218.652V18.919H220.378C222.408 18.919 223.897 19.3183 224.846 20.1152C225.793 20.912 226.267 22.208 226.267 23.9997V51.1965C226.267 54.4838 224.303 56.1283 220.378 56.1283H214.894V56.1266ZM220.378 53.2859C221.053 53.2859 221.562 53.0998 221.9 52.7259C222.239 52.352 222.408 51.8428 222.408 51.1948V23.998C222.408 23.2502 222.256 22.6902 221.951 22.3163C221.647 21.9424 221.122 21.7563 220.378 21.7563H218.652V53.2859H220.378Z" fill="#1B1B1B"/>
<path fill-rule="evenodd" clip-rule="evenodd" d="M19.5529 0.758027V55.9823H16.472V11.6621H16.3942L11.1798 55.9823H8.33581L3.27882 11.6621H3.1993V55.9823H0.118408V0.758027H4.93854L9.75698 42.4727H9.8365L14.7345 0.758027H19.5529Z" fill="#1B1B1B"/>
<path fill-rule="evenodd" clip-rule="evenodd" d="M132.668 0.912234V56.1365H129.586V11.8146H129.508L124.293 56.1365H121.449L116.392 11.8146H116.313V56.1365H113.232V0.912234H118.052L122.871 42.6253H122.95L127.848 0.912234H132.668Z" fill="#1B1B1B"/>
<path fill-rule="evenodd" clip-rule="evenodd" d="M46.5807 56.6065C45.8379 56.6065 45.0817 56.4729 44.3119 56.2089C43.5421 55.9433 42.8653 55.5187 42.2816 54.935C41.6979 54.3513 41.2208 53.595 40.8486 52.6662C40.4764 51.7373 40.292 50.6359 40.292 49.362V7.24458C40.292 5.9706 40.4781 4.8692 40.8486 3.94036C41.2208 3.01153 41.6979 2.25526 42.2816 1.67157C42.8653 1.08787 43.5421 0.663212 44.3119 0.397589C45.0817 0.131966 45.8379 0 46.5807 0H47.7751C48.5179 0 49.2606 0.133658 50.005 0.397589C50.7477 0.663212 51.4245 1.08787 52.0353 1.67157C52.646 2.25526 53.1367 3.01153 53.5089 3.94036C53.8794 4.8692 54.0655 5.9706 54.0655 7.24458V49.362C54.0655 50.6359 53.8794 51.7373 53.5089 52.6662C53.1367 53.595 52.646 54.3513 52.0353 54.935C51.4245 55.5187 50.7477 55.9433 50.005 56.2089C49.2623 56.4746 48.5196 56.6065 47.7751 56.6065H46.5807ZM46.8987 3.10458C46.156 3.10458 45.4793 3.46325 44.8685 4.17892C44.2577 4.89458 43.9532 6.10257 43.9532 7.80121V48.8036C43.9532 50.5023 44.2577 51.7103 44.8685 52.4259C45.4793 53.1433 46.156 53.5003 46.8987 53.5003H47.4554C48.1981 53.5003 48.8748 53.1416 49.4856 52.4259C50.0964 51.7103 50.4009 50.5023 50.4009 48.8036V7.8029C50.4009 6.10426 50.0964 4.89796 49.4856 4.18061C48.8748 3.46325 48.1981 3.10627 47.4554 3.10627H46.8987V3.10458ZM73.9771 56.1294L65.5651 11.4641H65.4856V56.1294H62.381V0.477107H66.6005L74.7215 44.6636H74.801V0.477107H78.2237V56.1294H73.9771ZM90.2799 3.58338V26.9109H96.012V29.6974H90.2799V53.0248H98.0016V56.1294H86.617V0.477107H97.6836V3.58169H90.2799V3.58338Z" fill="#1B1B1B"/>
<path d="M19.5529 61.3844H0V64H19.5529V61.3844Z" fill="#1B1B1B"/>
<path d="M224.259 1.15205H224.924C225.04 1.15205 225.14 1.17404 225.227 1.21634C225.311 1.25863 225.377 1.31954 225.424 1.39737C225.47 1.47519 225.494 1.56824 225.494 1.67652C225.494 1.79496 225.465 1.89647 225.406 1.98275C225.347 2.06904 225.265 2.12995 225.164 2.16547L225.546 2.86252H225.24L224.892 2.20777H224.526V2.86252H224.26V1.15205H224.259ZM224.897 1.98783C224.998 1.98783 225.078 1.96076 225.133 1.90831C225.189 1.85417 225.218 1.77973 225.218 1.6816C225.218 1.58516 225.189 1.51072 225.13 1.45658C225.071 1.40244 224.991 1.37537 224.888 1.37537H224.523V1.98783H224.897Z" fill="#1B1B1B"/>
<path d="M224.783 3.53217C225.613 3.53217 226.286 2.85953 226.286 2.02979C226.286 1.20005 225.613 0.52741 224.783 0.52741C223.953 0.52741 223.281 1.20005 223.281 2.02979C223.281 2.85953 223.953 3.53217 224.783 3.53217Z" stroke="#1B1B1B" stroke-width="0.169187" stroke-miterlimit="10"/>
<path fill-rule="evenodd" clip-rule="evenodd" d="M144.643 3.58833V26.9158H150.376V29.7023H144.643V53.0298H152.366V56.1361H140.981V0.48375H152.048V3.58833H144.643Z" fill="#1B1B1B"/>
<path fill-rule="evenodd" clip-rule="evenodd" d="M182.138 3.58833V26.9158H187.872V29.7023H182.138V53.0298H189.862V56.1344H178.477V0.48375H189.544V3.58833H182.138Z" fill="#1B1B1B"/>
<path d="M164.216 20.1855C166.258 20.1855 167.756 20.5746 168.71 21.3495C169.662 22.126 170.139 23.4152 170.139 25.2205V51.1467C170.139 54.4526 168.163 56.1072 164.216 56.1072H158.701V0.346612H169.424V3.12635H162.479V20.1855H164.214H164.216ZM166.258 25.2205C166.258 23.7688 165.576 23.0413 164.216 23.0413H162.48V53.2513H164.216C164.896 53.2513 165.407 53.0635 165.747 52.688C166.087 52.3124 166.258 51.7997 166.258 51.1467V25.2205Z" fill="#1B1B1B"/>
</g>
<defs>
<clipPath id="clip0_531_153">
<rect width="226.37" height="64" fill="white"/>
</clipPath>
</defs>
</svg>
