<svg width="14" height="14" viewBox="0 0 14 14" fill="none" xmlns="http://www.w3.org/2000/svg">
<path d="M9.38232 7.97319C9.19644 7.77219 8.98769 7.59362 8.76033 7.44111C9.6778 6.73176 10.3208 5.72608 10.5795 4.59561C10.5986 4.51392 10.6014 4.42925 10.5877 4.34649C10.5739 4.26372 10.544 4.18449 10.4995 4.11335C10.455 4.04222 10.3969 3.98058 10.3285 3.93198C10.2601 3.88338 10.1828 3.84879 10.101 3.83019C10.0192 3.81159 9.93448 3.80935 9.8518 3.82361C9.76912 3.83786 9.69007 3.86832 9.61921 3.91324C9.54835 3.95815 9.48707 4.01664 9.43889 4.08533C9.39072 4.15402 9.3566 4.23155 9.33851 4.31348C9.21798 4.84227 8.98355 5.33841 8.65158 5.7673C8.3196 6.19619 7.89807 6.5475 7.41637 6.79675V4.45582C7.41244 4.40899 7.40311 4.36277 7.38856 4.31809C7.38435 4.2813 7.37701 4.24493 7.36662 4.20938C7.33946 4.15151 7.30367 4.0981 7.26046 4.05098C7.24909 4.03747 7.24334 4.01964 7.2309 4.00714C7.18429 3.9641 7.1315 3.92827 7.0743 3.90083C7.05807 3.89217 7.04599 3.87752 7.02894 3.87028C6.98018 3.85404 6.92967 3.84365 6.87847 3.83932C6.84687 3.83007 6.81456 3.82343 6.78187 3.81947L6.3655 3.81818H6.36364C6.21477 3.81747 6.0704 3.86922 5.95589 3.96436C5.84138 4.05949 5.76405 4.19192 5.73746 4.3384C5.71087 4.48487 5.73673 4.63604 5.81049 4.76535C5.88426 4.89466 6.00122 4.99385 6.14085 5.0455V8.15776C5.13242 7.11095 4.46468 5.78327 4.22554 4.34955C4.21159 4.26716 4.18154 4.18833 4.13712 4.11756C4.0927 4.04678 4.03477 3.98545 3.96665 3.93707C3.89853 3.88868 3.82154 3.85418 3.74009 3.83555C3.65863 3.81692 3.5743 3.81451 3.49192 3.82847C3.40953 3.84242 3.3307 3.87247 3.25993 3.91689C3.18916 3.96131 3.12783 4.01924 3.07944 4.08736C3.03105 4.15548 2.99656 4.23247 2.97792 4.31392C2.95929 4.39538 2.95688 4.47971 2.97084 4.56209C3.34272 6.77826 4.57854 8.75642 6.40714 10.0625C6.43322 10.0782 6.4604 10.0919 6.48847 10.1035C6.51051 10.1165 6.53336 10.128 6.55687 10.138C6.62791 10.1664 6.70352 10.1817 6.78001 10.1831C6.87363 10.1819 6.96579 10.1598 7.04971 10.1183C7.05604 10.1153 7.06331 10.1167 7.06961 10.1135C7.12585 10.0842 7.17736 10.0466 7.2224 10.0019C7.23145 9.99312 7.23751 9.98229 7.24606 9.97296C7.28712 9.92785 7.3214 9.87701 7.34782 9.82203C7.35668 9.80377 7.36475 9.78634 7.37186 9.76715C7.39983 9.69695 7.4149 9.62228 7.41637 9.54673L7.41668 8.19382C7.81097 8.30959 8.16623 8.53067 8.44425 8.83329L9.49294 9.97675C9.54936 10.0385 9.61741 10.0886 9.6932 10.1241C9.76898 10.1595 9.85102 10.1797 9.93461 10.1834C10.0182 10.1871 10.1017 10.1743 10.1803 10.1457C10.259 10.117 10.3312 10.0732 10.3928 10.0167C10.4545 9.96009 10.5044 9.89193 10.5397 9.81606C10.575 9.74019 10.5949 9.65811 10.5985 9.57451C10.602 9.49092 10.589 9.40744 10.5602 9.32888C10.5314 9.25032 10.4874 9.1782 10.4307 9.11667L9.38232 7.97319ZM8.95539 0H5.05114C1.1329 0 0 1.13166 0 5.0443V8.94886C0 12.8671 1.13135 14 5.04461 14H8.94886C12.8671 14 14 12.8683 14 8.9557V5.05114C14 1.1329 12.8687 0 8.95539 0ZM12.7273 8.9557C12.7273 12.163 12.1624 12.7273 8.94886 12.7273H5.04461C1.83669 12.7273 1.27273 12.1624 1.27273 8.94886V5.0443C1.27273 1.837 1.83763 1.27273 5.05114 1.27273H8.95539C12.1633 1.27273 12.7273 1.83763 12.7273 5.05114V8.9557Z" fill="#1B1B1B"/>
</svg>
